<?xml version="1.0" standalone="no"?>
<!DOCTYPE svg PUBLIC "-//W3C//DTD SVG 20010904//EN"
 "http://www.w3.org/TR/2001/REC-SVG-20010904/DTD/svg10.dtd">
<svg version="1.0" xmlns="http://www.w3.org/2000/svg"
 width="80.000000pt" height="80.000000pt" viewBox="0 0 80.000000 80.000000"
 preserveAspectRatio="xMidYMid meet">

<g transform="translate(0.000000,80.000000) scale(0.100000,-0.100000)"
fill="#000000" stroke="none">
<path d="M652 562 l-34 -42 31 6 c26 5 32 3 40 -17 9 -23 10 -23 9 6 0 17 -3
43 -7 60 l-6 29 -33 -42z m31 -2 c4 -15 0 -20 -14 -20 -17 0 -18 3 -7 20 7 11
13 20 14 20 1 0 4 -9 7 -20z"/>
<path d="M570 467 c26 -9 38 -21 47 -47 9 -27 12 -30 12 -12 1 13 -10 34 -24
47 -13 14 -34 25 -47 24 -18 0 -15 -3 12 -12z"/>
<path d="M596 352 l-19 -27 24 22 c12 12 21 24 18 27 -2 2 -13 -8 -23 -22z"/>
</g>
</svg>
